HIERARCHY
ROOT hip
{
  OFFSET 0 0 0
  CHANNELS 6 Xposition Yposition Zposition Zrotation Yrotation Xrotation
  JOINT abdomen
  {
    OFFSET 0 20.6881 -0.73152
    CHANNELS 3 Zrotation Xrotation Yrotation
    JOINT chest
    {
      OFFSET 0 11.7043 -0.48768
      CHANNELS 3 Zrotation Xrotation Yrotation
      JOINT neck
      {
        OFFSET 0 22.1894 -2.19456
        CHANNELS 3 Zrotation Xrotation Yrotation
        JOINT head
        {
          OFFSET -0.24384 7.07133 1.2192
          CHANNELS 3 Zrotation Xrotation Yrotation
          JOINT leftEye
          {
            OFFSET 4.14528 8.04674 8.04672
            CHANNELS 3 Zrotation Xrotation Yrotation
            End Site
            {
              OFFSET 1 0 0
            }
          }
          JOINT rightEye
          {
            OFFSET -3.6576 8.04674 8.04672
            CHANNELS 3 Zrotation Xrotation Yrotation
            End Site
            {
              OFFSET 1 0 0
            }
          }
        }
      }
      JOINT rCollar
      {
        OFFSET -2.68224 19.2634 -4.8768
        CHANNELS 3 Zrotation Xrotation Yrotation
        JOINT rShldr
        {
          OFFSET -8.77824 -1.95073 1.46304
          CHANNELS 3 Zrotation Xrotation Yrotation
          JOINT rForeArm
          {
            OFFSET -28.1742 -1.7115 0.48768
            CHANNELS 3 Zrotation Xrotation Yrotation
            JOINT rHand
            {
              OFFSET -22.5879 0.773209 7.07136
              CHANNELS 3 Zrotation Xrotation Yrotation
              JOINT rThumb1
              {
                OFFSET -1.2192 -0.487915 3.41376
                CHANNELS 3 Zrotation Xrotation Yrotation
                JOINT rThumb2
                {
                  OFFSET -3.37035 -0.52449 3.41376
                  CHANNELS 3 Zrotation Xrotation Yrotation
                  End Site
                  {
                    OFFSET -1.78271 -1.18214 1.43049
                  }
                }
              }
              JOINT rIndex1
              {
                OFFSET -7.75947 0.938293 5.60832
                CHANNELS 3 Zrotation Xrotation Yrotation
                JOINT rIndex2
                {
                  OFFSET -2.54057 -0.884171 1.56538
                  CHANNELS 3 Zrotation Xrotation Yrotation
                  End Site
                  {
                    OFFSET -1.62519 -0.234802 1.16502
                  }
                }
              }
              JOINT rMid1
              {
                OFFSET -8.24714 1.18213 3.41376
                CHANNELS 3 Zrotation Xrotation Yrotation
                JOINT rMid2
                {
                  OFFSET -3.10165 -0.590103 1.0647
                  CHANNELS 3 Zrotation Xrotation Yrotation
                  End Site
                  {
                    OFFSET -2.48547 -0.328903 0.83742
                  }
                }
              }
              JOINT rRing1
              {
                OFFSET -8.82822 0.546677 1.51678
                CHANNELS 3 Zrotation Xrotation Yrotation
                JOINT rRing2
                {
                  OFFSET -2.60934 -0.819778 -0.0198488
                  CHANNELS 3 Zrotation Xrotation Yrotation
                  End Site
                  {
                    OFFSET -2.33842 -0.294052 0.168128
                  }
                }
              }
              JOINT rPinky1
              {
                OFFSET -8.27202 -0.0477905 -0.4584
                CHANNELS 3 Zrotation Xrotation Yrotation
                JOINT rPinky2
                {
                  OFFSET -1.82734 -0.647385 -0.700984
                  CHANNELS 3 Zrotation Xrotation Yrotation
                  End Site
                  {
                    OFFSET -1.69225 -0.51767 -0.607171
                  }
                }
              }
            }
          }
        }
      }
      JOINT lCollar
      {
        OFFSET 2.68224 19.2634 -4.8768
        CHANNELS 3 Zrotation Xrotation Yrotation
        JOINT lShldr
        {
          OFFSET 8.77824 -1.95073 1.46304
          CHANNELS 3 Zrotation Xrotation Yrotation
          JOINT lForeArm
          {
            OFFSET 28.1742 -1.7115 0.48768
            CHANNELS 3 Zrotation Xrotation Yrotation
            JOINT lHand
            {
              OFFSET 22.5879 0.773209 7.07136
              CHANNELS 3 Zrotation Xrotation Yrotation
              JOINT lThumb1
              {
                OFFSET 1.2192 -0.487915 3.41376
                CHANNELS 3 Zrotation Xrotation Yrotation
                JOINT lThumb2
                {
                  OFFSET 3.37035 -0.52449 3.41376
                  CHANNELS 3 Zrotation Xrotation Yrotation
                  End Site
                  {
                    OFFSET 1.78271 -1.18214 1.43049
                  }
                }
              }
              JOINT lIndex1
              {
                OFFSET 7.75947 0.938293 5.60832
                CHANNELS 3 Zrotation Xrotation Yrotation
                JOINT lIndex2
                {
                  OFFSET 2.54057 -0.884171 1.56538
                  CHANNELS 3 Zrotation Xrotation Yrotation
                  End Site
                  {
                    OFFSET 1.62519 -0.234802 1.16502
                  }
                }
              }
              JOINT lMid1
              {
                OFFSET 8.24714 1.18213 3.41376
                CHANNELS 3 Zrotation Xrotation Yrotation
                JOINT lMid2
                {
                  OFFSET 3.10165 -0.590103 1.0647
                  CHANNELS 3 Zrotation Xrotation Yrotation
                  End Site
                  {
                    OFFSET 2.48547 -0.328903 0.83742
                  }
                }
              }
              JOINT lRing1
              {
                OFFSET 8.82822 0.546677 1.51678
                CHANNELS 3 Zrotation Xrotation Yrotation
                JOINT lRing2
                {
                  OFFSET 2.60934 -0.819778 -0.0198488
                  CHANNELS 3 Zrotation Xrotation Yrotation
                  End Site
                  {
                    OFFSET 2.33842 -0.294052 0.168128
                  }
                }
              }
              JOINT lPinky1
              {
                OFFSET 8.27202 -0.0477905 -0.4584
                CHANNELS 3 Zrotation Xrotation Yrotation
                JOINT lPinky2
                {
                  OFFSET 1.82734 -0.647385 -0.700984
                  CHANNELS 3 Zrotation Xrotation Yrotation
                  End Site
                  {
                    OFFSET 1.69225 -0.51767 -0.607171
                  }
                }
              }
            }
          }
        }
      }
    }
  }
  JOINT rButtock
  {
    OFFSET -8.77824 4.35084 1.2192
    CHANNELS 3 Zrotation Xrotation Yrotation
    JOINT rThigh
    {
      OFFSET 0 -1.70687 -2.19456
      CHANNELS 3 Zrotation Xrotation Yrotation
      JOINT rShin
      {
        OFFSET 0 -36.8199 0.73152
        CHANNELS 3 Zrotation Xrotation Yrotation
        JOINT rFoot
        {
          OFFSET 0.73152 -45.1104 -5.12064
          CHANNELS 3 Zrotation Xrotation Yrotation
          End Site
          {
            OFFSET -1.1221 -3.69964 12.103
          }
        }
      }
    }
  }
  JOINT lButtock
  {
    OFFSET 8.77824 4.35084 1.2192
    CHANNELS 3 Zrotation Xrotation Yrotation
    JOINT lThigh
    {
      OFFSET 0 -1.70687 -2.19456
      CHANNELS 3 Zrotation Xrotation Yrotation
      JOINT lShin
      {
        OFFSET 0 -36.8199 0.73152
        CHANNELS 3 Zrotation Xrotation Yrotation
        JOINT lFoot
        {
          OFFSET -0.73152 -45.1104 -5.12064
          CHANNELS 3 Zrotation Xrotation Yrotation
          End Site
          {
            OFFSET 1.1221 -3.69964 12.103
          }
        }
      }
    }
  }
}
MOTION
Frames:	4
Frame Time:	0.00833333
-132.747 82.8748 14.1261 -177.109 16.6815 -168.482 1.41635 -18.7079 2.53803 1.55151 2.64261 0.956564 1.6663 21.7045 5.03016 -11.7011 -22.3481 9.14051 -0.0 0.0 0.0 -0.0 0.0 0.0 -7.5955e-14 -1.68323e-14 -1.37943e-13 23.6656 -38.5568 83.6096 -20.6084 -52.8644 112.716 -1.04136 -27.6715 -4.22635 3.06772e-10 -2.08831e-10 -3.86615e-11 5.30899e-10 -3.71332e-10 -5.93211e-11 3.06776e-10 -2.08824e-10 -3.86669e-11 7.73091 5.47488 0.417314 3.06778e-10 -2.08824e-10 -3.86614e-11 2.90554 0.965183 0.102902 3.06783e-10 -2.08828e-10 -3.86648e-11 10.2786 0.731801 0.0259123 3.06772e-10 -2.08817e-10 -3.8665e-11 2.22167 -0.733487 -0.20892 -7.58718e-14 -1.68358e-14 -1.37933e-13 -81.4533 43.4372 -6.91275 9.01275 -3.56261 -15.9627 1.35908 31.1491 -4.87288 -1.24232e-09 2.27723e-10 3.7177e-10 -2.13767e-09 4.27539e-10 6.71706e-10 -1.24234e-09 2.27724e-10 3.71784e-10 -7.73091 5.47488 -0.417314 -1.24232e-09 2.27724e-10 3.7177e-10 -2.90554 0.965183 -0.102902 -1.24232e-09 2.27723e-10 3.71772e-10 -10.2786 0.731801 -0.0259123 -1.24232e-09 2.27724e-10 3.71761e-10 -2.22167 -0.733487 0.20892 -2.03217e-16 0.0 -3.88251e-19 -3.90151 -21.3545 6.48737 -0.0956069 22.3176 0.324246 -2.18613 -2.79677 -13.4012 2.03217e-16 0.0 3.88251e-19 -0.157494 -25.2094 -3.48306 0.139811 28.6451 -0.557456 2.84497 -20.4126 5.90651
-132.745 82.8715 14.1448 -177.106 16.8904 -168.441 1.45223 -18.6425 2.57973 1.51104 2.61441 0.966016 1.6705 21.7682 5.05188 -11.6038 -22.4826 9.1698 -0.0 0.0 0.0 -0.0 0.0 0.0 -9.36826e-14 -1.74901e-14 -2.09917e-13 23.691 -38.5991 83.5474 -20.5957 -52.8749 112.748 -1.0451 -27.7167 -4.23444 3.42056e-10 -3.65417e-10 5.95018e-11 5.89437e-10 -6.41286e-10 1.11549e-10 3.42059e-10 -3.6541e-10 5.94955e-11 7.73091 5.47488 0.417314 3.42062e-10 -3.65407e-10 5.95018e-11 2.90554 0.965183 0.102902 3.42067e-10 -3.65414e-10 5.94994e-11 10.2786 0.731801 0.0259123 3.42055e-10 -3.65401e-10 5.94986e-11 2.22167 -0.733487 -0.20892 -9.35787e-14 -1.74946e-14 -2.09917e-13 -81.4441 43.4464 -6.8844 9.02648 -3.57041 -15.9881 1.35815 31.1413 -4.8713 -9.76332e-10 6.39459e-10 7.42287e-10 -1.66912e-09 1.13011e-09 1.30446e-09 -9.76346e-10 6.39462e-10 7.423e-10 -7.73091 5.47488 -0.417314 -9.7633e-10 6.39458e-10 7.42287e-10 -2.90554 0.965183 -0.102902 -9.76329e-10 6.39458e-10 7.4229e-10 -10.2786 0.731801 -0.0259123 -9.76324e-10 6.3946e-10 7.42278e-10 -2.22167 -0.733487 0.20892 -2.03217e-16 0.0 -3.88251e-19 -3.8793 -21.4417 6.44859 -0.0967173 22.4269 0.32647 -2.1931 -2.81688 -13.3938 2.03217e-16 0.0 3.88251e-19 -0.094177 -25.2016 -3.31931 0.139807 28.6493 -0.556633 2.81857 -20.407 5.84787
-132.744 82.8657 14.176 -177.129 17.2047 -168.355 1.45177 -18.6053 2.6218 1.52343 2.62611 0.97479 1.60046 21.8269 5.11064 -11.4257 -22.6575 9.27041 -0.0 0.0 0.0 -0.0 0.0 0.0 -1.33498e-13 -5.11785e-14 -3.52614e-13 23.7066 -38.7057 83.4786 -20.5789 -52.8887 112.79 -1.05415 -27.8252 -4.25396 9.82227e-11 -6.77006e-10 4.42733e-10 1.56211e-10 -1.16433e-09 7.70779e-10 9.8225e-11 -6.77e-10 4.42723e-10 7.73091 5.47488 0.417314 9.82272e-11 -6.76996e-10 4.42733e-10 2.90554 0.965183 0.102902 9.82308e-11 -6.77003e-10 4.42732e-10 10.2786 0.731801 0.0259123 9.82215e-11 -6.7699e-10 4.42732e-10 2.22167 -0.733487 -0.20892 -1.33426e-13 -5.1182e-14 -3.52684e-13 -81.3597 43.7153 -6.9635 9.06111 -3.5901 -16.0521 1.33321 30.8938 -4.82353 -6.48203e-10 1.35643e-09 1.44777e-09 -1.08671e-09 2.35718e-09 2.51406e-09 -6.48216e-10 1.35643e-09 1.44778e-09 -7.73091 5.47488 -0.417314 -6.48201e-10 1.35642e-09 1.44777e-09 -2.90554 0.965183 -0.102902 -6.48202e-10 1.35642e-09 1.44777e-09 -10.2786 0.731801 -0.0259123 -6.48195e-10 1.35643e-09 1.44776e-09 -2.22167 -0.733487 0.20892 -2.03217e-16 0.0 -3.88251e-19 -3.87925 -21.5832 6.39423 -0.0980566 22.5658 0.329742 -2.19518 -2.88762 -13.2626 2.03217e-16 0.0 3.88251e-19 -0.0733409 -25.1947 -3.2268 0.139362 28.6283 -0.556024 2.81668 -20.3932 5.84775
-132.756 82.8628 14.1923 -177.163 17.4016 -168.334 1.42357 -18.589 2.66467 1.57182 2.66541 0.983385 1.48113 21.8861 5.19529 -11.1881 -22.8674 9.42035 -0.0 0.0 0.0 -0.0 0.0 0.0 -1.8837e-13 -1.08585e-13 -5.42136e-13 23.7212 -38.8574 83.4088 -20.5604 -52.9038 112.836 -1.06693 -27.977 -4.28133 -3.20982e-10 -1.09802e-09 1.01494e-09 -5.86237e-10 -1.867e-09 1.75391e-09 -3.20981e-10 -1.09802e-09 1.01493e-09 7.73091 5.47488 0.417314 -3.2098e-10 -1.09801e-09 1.01494e-09 2.90554 0.965183 0.102902 -3.20979e-10 -1.09802e-09 1.01495e-09 10.2786 0.731801 0.0259123 -3.20983e-10 -1.09801e-09 1.01495e-09 2.22167 -0.733487 -0.20892 -1.88364e-13 -1.08586e-13 -5.42322e-13 -81.2218 44.1623 -7.11661 9.11054 -3.61822 -16.1435 1.29273 30.4806 -4.7446 -2.17732e-10 2.31567e-09 2.40195e-09 -3.22503e-10 3.9991e-09 4.15053e-09 -2.17743e-10 2.31567e-09 2.40197e-09 -7.73091 5.47488 -0.417314 -2.1773e-10 2.31566e-09 2.40195e-09 -2.90554 0.965183 -0.102902 -2.17735e-10 2.31567e-09 2.40196e-09 -10.2786 0.731801 -0.0259123 -2.17725e-10 2.31567e-09 2.40195e-09 -2.22167 -0.733487 0.20892 -2.03217e-16 0.0 -3.88251e-19 -3.89554 -21.7646 6.33506 -0.0995977 22.7285 0.333798 -2.1948 -2.99182 -13.0586 2.03217e-16 0.0 3.88251e-19 -0.0808032 -25.1912 -3.17086 0.138633 28.5901 -0.555447 2.82765 -20.3746 5.87859
